<svg xmlns="http://www.w3.org/2000/svg" width="20" height="20" viewBox="0 0 20 20">
  <path id="brand_github-square" data-name="brand github-square" d="M17.857,32H2.143A2.143,2.143,0,0,0,0,34.143V49.857A2.143,2.143,0,0,0,2.143,52H17.857A2.143,2.143,0,0,0,20,49.857V34.143A2.143,2.143,0,0,0,17.857,32ZM12.379,49.129c-.375.067-.513-.165-.513-.357,0-.241.009-1.473.009-2.469a1.739,1.739,0,0,0-.5-1.371c1.652-.183,3.393-.411,3.393-3.263A2.292,2.292,0,0,0,14,39.929a2.792,2.792,0,0,0-.076-2.009c-.621-.192-2.04.8-2.04.8a7.023,7.023,0,0,0-3.714,0s-1.42-.991-2.04-.8a2.77,2.77,0,0,0-.076,2.009,2.242,2.242,0,0,0-.7,1.741c0,2.839,1.665,3.08,3.317,3.263a1.618,1.618,0,0,0-.473,1,1.566,1.566,0,0,1-2.156-.621,1.555,1.555,0,0,0-1.138-.763c-.723-.009-.049.455-.049.455.482.223.821,1.08.821,1.08.433,1.326,2.5.879,2.5.879,0,.621.009,1.629.009,1.812s-.134.424-.513.357A7.406,7.406,0,0,1,2.67,42.063,7.085,7.085,0,0,1,9.9,34.853a7.243,7.243,0,0,1,7.42,7.21A7.338,7.338,0,0,1,12.379,49.129ZM8,46.4c-.085.018-.165-.018-.174-.076s.049-.125.134-.143.165.027.174.085S8.089,46.384,8,46.4Zm-.424-.04c0,.058-.067.107-.156.107s-.165-.04-.165-.107.067-.107.156-.107S7.576,46.295,7.576,46.362Zm-.612-.049c-.018.058-.107.085-.183.058s-.143-.085-.125-.143.107-.085.183-.067S6.987,46.254,6.964,46.313Zm-.549-.241c-.04.049-.125.04-.192-.027s-.085-.143-.04-.183.125-.04.192.027S6.455,46.036,6.415,46.071Zm-.406-.406c-.04.027-.116,0-.165-.067s-.049-.143,0-.174.125-.009.165.058A.131.131,0,0,1,6.009,45.665Zm-.29-.433c-.04.04-.107.018-.156-.027s-.058-.125-.018-.156.107-.018.156.027S5.759,45.2,5.719,45.232Zm-.3-.33a.084.084,0,0,1-.125.018c-.058-.027-.085-.076-.067-.116a.105.105,0,0,1,.125-.018C5.411,44.817,5.437,44.866,5.42,44.9Z" transform="translate(0 -32)" fill="#44495e"/>
</svg>
