<svg xmlns="http://www.w3.org/2000/svg" width="20" height="20" viewBox="0 0 20 20">
  <path id="brand_linkedin" data-name="brand linkedin" d="M18.571,32H1.424A1.435,1.435,0,0,0,0,33.442V50.558A1.435,1.435,0,0,0,1.424,52H18.571A1.439,1.439,0,0,0,20,50.558V33.442A1.439,1.439,0,0,0,18.571,32ZM6.045,49.143H3.08V39.6H6.049v9.545ZM4.562,38.295a1.719,1.719,0,1,1,1.719-1.719A1.719,1.719,0,0,1,4.562,38.295ZM17.156,49.143H14.192V44.5c0-1.107-.022-2.531-1.54-2.531-1.545,0-1.781,1.205-1.781,2.451v4.723H7.906V39.6H10.75v1.3h.04a3.122,3.122,0,0,1,2.808-1.54c3,0,3.558,1.978,3.558,4.549Z" transform="translate(0 -32)" fill="#44495e"/>
</svg>
