<svg xmlns="http://www.w3.org/2000/svg" width="23.341" height="23.341" viewBox="0 0 23.341 23.341">
  <path id="brand_linkedin" data-name="brand linkedin" d="M21.674,32H1.662A1.674,1.674,0,0,0,0,33.683V53.658a1.674,1.674,0,0,0,1.662,1.683H21.674a1.679,1.679,0,0,0,1.667-1.683V33.683A1.679,1.679,0,0,0,21.674,32ZM7.054,52.007H3.595V40.868H7.06V52.007ZM5.325,39.346A2.006,2.006,0,1,1,7.331,37.34,2.007,2.007,0,0,1,5.325,39.346Zm14.7,12.661h-3.46V46.588c0-1.292-.026-2.954-1.8-2.954-1.8,0-2.079,1.407-2.079,2.86v5.512H9.227V40.868h3.319v1.521h.047a3.644,3.644,0,0,1,3.277-1.8c3.5,0,4.152,2.308,4.152,5.309Z" transform="translate(0 -32)" fill="#e7efff"/>
</svg>
