<svg xmlns="http://www.w3.org/2000/svg" width="30.594" height="24.475" viewBox="0 0 30.594 24.475">
  <path id="solid_chalkboard-teacher" data-name="solid chalkboard-teacher" d="M9.942,16.827a1.094,1.094,0,0,0-.337.052,6.306,6.306,0,0,1-1.957.33,6.311,6.311,0,0,1-1.958-.33,1.091,1.091,0,0,0-.337-.052A5.354,5.354,0,0,0,0,22.21a2.289,2.289,0,0,0,2.295,2.265H13A2.289,2.289,0,0,0,15.3,22.21,5.354,5.354,0,0,0,9.942,16.827ZM7.647,15.3a4.589,4.589,0,1,0-4.589-4.589A4.589,4.589,0,0,0,7.647,15.3ZM28.3,0H9.942A2.336,2.336,0,0,0,7.647,2.371V4.589a6.049,6.049,0,0,1,3.059.851V3.059H27.533V16.827H24.474V13.767H18.355v3.059H14.71a6.093,6.093,0,0,1,1.9,3.059H28.3a2.336,2.336,0,0,0,2.295-2.371V2.371A2.336,2.336,0,0,0,28.3,0Z" transform="translate(0.002)" fill="#30adc0"/>
</svg>
