<svg xmlns="http://www.w3.org/2000/svg" width="31.594" height="28.078" viewBox="0 0 31.594 28.078">
  <path id="solid_edit" data-name="solid edit" d="M22.083,4.658,27.03,9.606a.536.536,0,0,1,0,.757L15.051,22.342l-5.09.565a1.067,1.067,0,0,1-1.179-1.179l.565-5.09L21.326,4.658a.536.536,0,0,1,.757,0ZM30.969,3.4,28.292.725a2.145,2.145,0,0,0-3.028,0L23.322,2.667a.536.536,0,0,0,0,.757L28.27,8.371a.536.536,0,0,0,.757,0L30.969,6.43a2.145,2.145,0,0,0,0-3.028ZM21.063,19.084v5.584H3.51V7.115h12.6a.674.674,0,0,0,.466-.192l2.194-2.194A.658.658,0,0,0,18.309,3.6H2.633A2.634,2.634,0,0,0,0,6.238V25.545a2.634,2.634,0,0,0,2.633,2.633H21.94a2.634,2.634,0,0,0,2.633-2.633V16.89a.659.659,0,0,0-1.124-.466l-2.194,2.194A.674.674,0,0,0,21.063,19.084Z" transform="translate(0 -0.1)" fill="#30adc0"/>
</svg>
